<svg xmlns="http://www.w3.org/2000/svg" width="347.611" height="61.274" viewBox="0 0 347.611 61.274">
  <g id="logo-betha" transform="translate(-120.001 -148)">
    <path id="Caminho_1119" data-name="Caminho 1119" d="M287.4,197.8h0c-.085-.541-.335-.814-.706-.814-.409,0-.522.292-.8.827L280.13,209h9.1Zm-48.227-.386h-9.61l-4.275,24.193h-6.48l4.265-24.193H213.85l.852-4.881h25.31Zm-33.7,24.193h-9.622q-4.543,0-6.95-1.738a5.5,5.5,0,0,1-2.393-4.711,11.012,11.012,0,0,1,.1-1.429l2.349-13.277a8.436,8.436,0,0,1,3.785-5.771,14.383,14.383,0,0,1,8.219-2.147h9.885l-.843,4.88H200.13a5.123,5.123,0,0,0-3.521.982,4.511,4.511,0,0,0-1.184,2.568l-.571,3.237H207.88l-.816,4.815h-13l-.763,4.3a7.25,7.25,0,0,0-.149,1.228c0,1.523,1.168,2.28,3.523,2.28H207.04l-.6,3.409-.138.8A.765.765,0,0,1,205.475,221.605Zm-29.254-9.64h0c0-2.123-1.287-3.185-3.829-3.185h-7.216l-1.453,8.043H170.6a5.912,5.912,0,0,0,4.2-1.346A4.6,4.6,0,0,0,176.221,211.966Zm.866-11.906h0c0-5.151-6.8-3.461-9.9-3.108l-1.2,7.18h6.151a5.2,5.2,0,0,0,3.51-1.231A3.619,3.619,0,0,0,177.087,200.059ZM169.779,221.6H156.372l4.876-27.951A50.726,50.726,0,0,1,174,191.886c4.643,0,9.723,2.048,9.723,7.548,0,3.414-2.528,5.382-5.671,6.49l-.051.163q4.849,1.923,4.853,5.635a8.579,8.579,0,0,1-3.663,7.231A15.616,15.616,0,0,1,169.779,221.6Zm78.742-17.4h11.152l2.051-11.669h6.542l-5,28.422a.774.774,0,0,1-.876.652H256.6l2.219-12.59H247.685l-2.21,12.59h-6.6l5.105-29.073h6.6ZM139.868,187.1h0a6.165,6.165,0,0,0-3.006-4.075l-11.4-6.665-.737-.285a6.259,6.259,0,0,0-5.358.632l-10.606,6.116a6.145,6.145,0,0,0-3.45,5.629c0,.089,0,.17,0,.248v12.877a5.973,5.973,0,0,0,3.406,5.43l5.26,2.986,5.883,3.439.91.374a6.343,6.343,0,0,0,1.929.3,6.131,6.131,0,0,0,3.323-.961l5.32-3.157,5.984-3.442.65-.393a6.9,6.9,0,0,0,2.036-3.461V187.937Zm-3.9,12.609v1.685a2,2,0,0,1-1.079,1.878l-10.954,6.407-.209.124v0a2.218,2.218,0,0,1-2.219-.1l-1.146-.66-4.367-2.558-5.338-3.03-.125-.062a2.03,2.03,0,0,1-1.185-1.891l.006-12.9,0-.148a2.126,2.126,0,0,1,1.177-1.993l10.894-6.27.146-.1a2.271,2.271,0,0,1,2.27,0l1.015.633.026-.021,9.72,5.684.284.172a2.161,2.161,0,0,1,1.084,1.991Zm-36.971-.337h0a2.826,2.826,0,0,0-1.376-1.983l-3.774-2.207a.961.961,0,0,0-.24-.1,2.873,2.873,0,0,0-1.057-.2,2.684,2.684,0,0,0-1.458.4l-3.45,1.992a2.858,2.858,0,0,0-1.612,2.635v4.293a2.777,2.777,0,0,0,1.544,2.458l3.64,2.1a1.209,1.209,0,0,0,.185.086,2.96,2.96,0,0,0,1.164.235,2.672,2.672,0,0,0,1.456-.407l3.741-2.179a1.716,1.716,0,0,0,.191-.141,2.762,2.762,0,0,0,1.037-1.711,1.4,1.4,0,0,0,.047-.347v-4.619A1.107,1.107,0,0,0,98.995,199.37Zm-10.08.487,3.633-2.1,3.6,2.107,0,4.21-3.6,2.1L88.933,204.1l-.022-.255,0-.062Zm23.577,31.966h0a4.387,4.387,0,0,0,1.7-2.825,1.4,1.4,0,0,0,.059-.39v-9.237a1.18,1.18,0,0,0-.048-.335,4.485,4.485,0,0,0-2.2-3.218l-7.535-4.41a1.285,1.285,0,0,0-.28-.117,4.65,4.65,0,0,0-1.718-.332,4.377,4.377,0,0,0-2.376.671l-6.963,4.02a4.522,4.522,0,0,0-2.513,4.183v8.548a4.347,4.347,0,0,0,2.468,3.915l7.307,4.225a1.549,1.549,0,0,0,.252.111,4.575,4.575,0,0,0,1.821.382,4.387,4.387,0,0,0,2.365-.682l7.464-4.362A1.425,1.425,0,0,0,112.492,231.823Zm-1.647-3.571a.957.957,0,0,1-.465.89l-.21.1a1.715,1.715,0,0,0-.216.135l-6.8,3.988a.743.743,0,0,0-.108.062,1.07,1.07,0,0,1-.578.168,1.17,1.17,0,0,1-.6-.164l-.181-.118a.959.959,0,0,0-.173-.093l-6.829-3.928a.51.51,0,0,0-.113-.057.959.959,0,0,1-.561-.857c.005-.079.007-.118.007-.158l.008-.233a1.008,1.008,0,0,0-.006-.168l-.007-8.11a1.047,1.047,0,0,1,.526-.965,1.446,1.446,0,0,0,.148-.07l7.111-4.1a.378.378,0,0,0,.088-.057,1.119,1.119,0,0,1,1.126-.009l.182.114a.8.8,0,0,0,.125.067l6.914,4.036a.645.645,0,0,0,.076.044,1.084,1.084,0,0,1,.537,1l0,8.158a.507.507,0,0,0,0,.068ZM289.98,213.824H277.67l-3.994,7.782h-6.891l12.668-24.335c2.3-4.41,4.969-5.067,8.056-5.067,3.067,0,5.721,1.183,6.358,5.067l4.009,24.335h-6.711Z" transform="translate(33.973 -27.74)" fill="#1f31f3"/>
    <path id="Caminho_1120" data-name="Caminho 1120" d="M464.4,221.456A1.5,1.5,0,0,0,465.957,220a1.547,1.547,0,0,0-3.088,0,1.467,1.467,0,0,0,1.527,1.459m-5.83.05c2.165,0,3.641-.939,3.641-2.634,0-1.544-1.259-2.131-2.584-2.517-1.242-.386-2.416-.436-2.416-1.107,0-.486.554-.755,1.276-.755.856,0,1.359.386,1.359.873v.1c0,.068.1.1.286.1h1.644c.185,0,.286-.083.286-.2,0-1.594-1.426-2.719-3.591-2.719-2.08,0-3.523,1.023-3.523,2.7,0,1.493,1.225,2.064,2.365,2.45,1.241.5,2.517.486,2.517,1.158,0,.453-.5.789-1.276.789-.838,0-1.426-.4-1.426-.889v-.117c0-.067-.1-.1-.285-.1h-1.7a.257.257,0,0,0-.285.286v.083C454.858,220.467,456.284,221.507,458.566,221.507Zm-8.381-6.846a1.431,1.431,0,0,1,1.459,1.057,1.662,1.662,0,0,1,.067.353c.017.067-.017.1-.084.1h-2.852c-.067,0-.1-.034-.084-.1a2.275,2.275,0,0,1,.1-.42A1.347,1.347,0,0,1,450.185,214.661Zm.436,4.866a1.79,1.79,0,0,1-1.862-1.074,2.7,2.7,0,0,1-.118-.52.089.089,0,0,1,.1-.1h5.151a.257.257,0,0,0,.286-.285c-.017-.437-.05-.856-.1-1.225-.369-2.265-1.594-3.708-3.859-3.708a3.739,3.739,0,0,0-3.759,2.752,6.091,6.091,0,0,0-.184,1.644,5.833,5.833,0,0,0,.2,1.561,3.774,3.774,0,0,0,3.926,2.953,4.188,4.188,0,0,0,3.305-1.477.275.275,0,0,0-.034-.4l-.956-.923c-.134-.135-.268-.117-.4.033A2.226,2.226,0,0,1,450.621,219.527Zm-11.553,1.862h6.292a.257.257,0,0,0,.285-.286v-1.577a.257.257,0,0,0-.285-.286h-3.725c-.084,0-.1-.05-.05-.117l3.842-4.077a.491.491,0,0,0,.135-.352v-1.644a.257.257,0,0,0-.286-.286H439.17a.257.257,0,0,0-.286.286v1.56a.257.257,0,0,0,.286.286h3.422c.083,0,.1.05.05.117l-3.725,4.077a.491.491,0,0,0-.135.352V221.1A.257.257,0,0,0,439.069,221.389Zm-3.246,0h1.8a.257.257,0,0,0,.285-.286v-8.053a.257.257,0,0,0-.285-.286h-1.8a.257.257,0,0,0-.285.286V221.1A.257.257,0,0,0,435.823,221.389Zm.889-9.446a1.41,1.41,0,1,0-1.444-1.409A1.348,1.348,0,0,0,436.712,211.943Zm-4.657,9.446h1.8a.257.257,0,0,0,.285-.286V209.93a.256.256,0,0,0-.285-.285h-1.8a.257.257,0,0,0-.285.285V221.1A.257.257,0,0,0,432.056,221.389Zm-5.26-6.728a1.431,1.431,0,0,1,1.46,1.057,1.618,1.618,0,0,1,.067.353c.017.067-.017.1-.083.1h-2.853c-.067,0-.1-.034-.084-.1a2.277,2.277,0,0,1,.1-.42A1.347,1.347,0,0,1,426.8,214.661Zm.437,4.866a1.79,1.79,0,0,1-1.862-1.074,2.694,2.694,0,0,1-.118-.52.089.089,0,0,1,.1-.1H430.5a.257.257,0,0,0,.286-.285c-.017-.437-.05-.856-.1-1.225-.369-2.265-1.594-3.708-3.859-3.708a3.739,3.739,0,0,0-3.759,2.752,6.09,6.09,0,0,0-.184,1.644,5.833,5.833,0,0,0,.2,1.561,3.774,3.774,0,0,0,3.926,2.953,4.188,4.188,0,0,0,3.305-1.477.275.275,0,0,0-.034-.4l-.956-.923c-.134-.135-.268-.117-.4.033A2.226,2.226,0,0,1,427.232,219.527Zm-4.79-6.779h-1.527a.089.089,0,0,1-.1-.1v-.168c0-.805.252-1.057,1.041-1.074h.47a.257.257,0,0,0,.285-.285V209.93a.257.257,0,0,0-.285-.285h-.554c-2.466-.068-3.322.6-3.322,2.651v.352a.1.1,0,0,1-.1.1h-.889a.257.257,0,0,0-.285.286v1.426a.257.257,0,0,0,.285.286h.889a.089.089,0,0,1,.1.1V221.1a.257.257,0,0,0,.285.286h1.8a.257.257,0,0,0,.285-.286v-6.258a.089.089,0,0,1,.1-.1h1.527a.257.257,0,0,0,.285-.286v-1.426A.257.257,0,0,0,422.442,212.748Zm-12.676,8.758c2.164,0,3.641-.939,3.641-2.634,0-1.544-1.259-2.131-2.583-2.517-1.242-.386-2.416-.436-2.416-1.107,0-.486.553-.755,1.275-.755.856,0,1.359.386,1.359.873v.1c0,.068.1.1.285.1h1.644c.184,0,.285-.083.285-.2,0-1.594-1.426-2.719-3.59-2.719-2.08,0-3.524,1.023-3.524,2.7,0,1.493,1.225,2.064,2.366,2.45,1.241.5,2.516.486,2.516,1.158,0,.453-.5.789-1.275.789-.839,0-1.426-.4-1.426-.889v-.117c0-.067-.1-.1-.285-.1h-1.695a.257.257,0,0,0-.285.286v.083C406.058,220.467,407.484,221.507,409.766,221.507Zm-8.666-1.745c-.7,0-1.192-.369-1.192-.973,0-.7.621-1.091,1.628-1.091h1.192a.1.1,0,0,1,.1.1v.587A1.549,1.549,0,0,1,401.1,219.762Zm.335-7.131c-2.03,0-3.523,1.023-3.691,2.416-.017.135.1.218.268.235l1.862.235a.293.293,0,0,0,.335-.218c.151-.4.6-.638,1.275-.638.889,0,1.343.453,1.343,1.174v.353a.1.1,0,0,1-.1.1h-1.695c-2.265,0-3.49,1.023-3.49,2.718,0,1.729,1.225,2.516,2.869,2.516a2.962,2.962,0,0,0,2.3-.856c.068-.067.118-.05.118.034v.4a.257.257,0,0,0,.285.286h1.8a.257.257,0,0,0,.285-.286v-5.6C405.193,213.872,403.65,212.631,401.435,212.631Zm-8.465,6.862a1.54,1.54,0,0,1-1.526-1.259,4.692,4.692,0,0,1-.135-1.174,4.745,4.745,0,0,1,.135-1.191,1.537,1.537,0,0,1,3,0,4.748,4.748,0,0,1,.134,1.191,4.259,4.259,0,0,1-.134,1.174A1.528,1.528,0,0,1,392.97,219.493Zm0,2.03a3.75,3.75,0,0,0,3.775-2.8,6.773,6.773,0,0,0,.218-1.695,5.89,5.89,0,0,0-.251-1.762,4.006,4.006,0,0,0-7.534.017,5.838,5.838,0,0,0-.252,1.778,6.114,6.114,0,0,0,.235,1.712A3.743,3.743,0,0,0,392.97,221.523Zm-8.314-.017c2.165,0,3.641-.939,3.641-2.634,0-1.544-1.259-2.131-2.584-2.517-1.241-.386-2.416-.436-2.416-1.107,0-.486.553-.755,1.275-.755.856,0,1.359.386,1.359.873v.1c0,.068.1.1.286.1h1.644c.184,0,.285-.083.285-.2,0-1.594-1.426-2.719-3.591-2.719-2.08,0-3.523,1.023-3.523,2.7,0,1.493,1.225,2.064,2.365,2.45,1.242.5,2.517.486,2.517,1.158,0,.453-.5.789-1.275.789-.839,0-1.426-.4-1.426-.889v-.117c0-.067-.1-.1-.286-.1h-1.694a.257.257,0,0,0-.286.286v.083C380.948,220.467,382.375,221.507,384.656,221.507Zm-7.811,0c2.165,0,3.641-.939,3.641-2.634,0-1.544-1.259-2.131-2.584-2.517-1.241-.386-2.416-.436-2.416-1.107,0-.486.553-.755,1.275-.755.856,0,1.359.386,1.359.873v.1c0,.068.1.1.286.1h1.644c.184,0,.285-.083.285-.2,0-1.594-1.426-2.719-3.591-2.719-2.08,0-3.523,1.023-3.523,2.7,0,1.493,1.225,2.064,2.366,2.45,1.241.5,2.516.486,2.516,1.158,0,.453-.5.789-1.275.789-.839,0-1.426-.4-1.426-.889v-.117c0-.067-.1-.1-.285-.1h-1.695a.257.257,0,0,0-.285.286v.083C373.138,220.467,374.565,221.507,376.846,221.507Zm-8.381-6.846a1.429,1.429,0,0,1,1.459,1.057,1.657,1.657,0,0,1,.068.353c.017.067-.017.1-.084.1h-2.853c-.067,0-.1-.034-.083-.1a2.162,2.162,0,0,1,.1-.42A1.347,1.347,0,0,1,368.465,214.661Zm.436,4.866a1.791,1.791,0,0,1-1.862-1.074,2.7,2.7,0,0,1-.117-.52.089.089,0,0,1,.1-.1h5.151a.257.257,0,0,0,.285-.285c-.017-.437-.05-.856-.1-1.225-.369-2.265-1.594-3.708-3.859-3.708a3.739,3.739,0,0,0-3.758,2.752,6.061,6.061,0,0,0-.185,1.644,5.861,5.861,0,0,0,.2,1.561,3.775,3.775,0,0,0,3.926,2.953,4.187,4.187,0,0,0,3.305-1.477.275.275,0,0,0-.033-.4l-.956-.923c-.135-.135-.268-.117-.4.033A2.226,2.226,0,0,1,368.9,219.527Zm-7.911-.7a1.309,1.309,0,0,1-1.174.637,1.282,1.282,0,0,1-1.124-.654,4.343,4.343,0,0,1-.017-3.389,1.271,1.271,0,0,1,1.141-.721,1.34,1.34,0,0,1,1.225.721,3.519,3.519,0,0,1,.353,1.644A3.463,3.463,0,0,1,360.99,218.823Zm2.6-3.725a3.368,3.368,0,0,0-3.238-2.466,2.251,2.251,0,0,0-1.913.906c-.051.067-.118.05-.118-.034v-.453a.257.257,0,0,0-.285-.286h-1.8a.257.257,0,0,0-.285.286v11.174a.257.257,0,0,0,.285.286h1.8a.257.257,0,0,0,.285-.286v-3.456c0-.083.067-.117.118-.05a2.31,2.31,0,0,0,1.913.823,3.318,3.318,0,0,0,3.2-2.349,5.961,5.961,0,0,0,.319-2.081A6.1,6.1,0,0,0,363.591,215.1Zm60.936-8.939h.422a.252.252,0,0,0,.251-.185l.906-3.507c.034-.151-.033-.235-.184-.235h-.638a.249.249,0,0,0-.235.2l-.724,3.49C424.292,206.074,424.377,206.158,424.528,206.158Zm-4.8-1.242c1.9,0,3.121-.956,3.121-2.4,0-1.661-1.628-2.114-3.053-2.517-1.141-.335-2.047-.638-2.047-1.476,0-.805.771-1.292,1.9-1.292,1.258,0,2.013.6,2.013,1.342v.1c0,.067.083.117.218.117h.687a.2.2,0,0,0,.219-.218c0-1.326-1.242-2.316-3.121-2.316-1.812,0-3.071.906-3.071,2.349,0,1.594,1.544,2.081,2.986,2.5,1.107.336,2.081.587,2.081,1.493,0,.789-.772,1.393-1.947,1.393-1.208,0-2.013-.671-2.013-1.376v-.151c0-.084-.084-.151-.218-.151h-.722a.2.2,0,0,0-.218.218v.151C416.544,203.909,417.8,204.916,419.732,204.916Zm-8.1-7.667a2.1,2.1,0,0,1,2.165,1.644,7.015,7.015,0,0,1,.1,1.074.079.079,0,0,1-.084.083h-4.312a.079.079,0,0,1-.083-.083,4.676,4.676,0,0,1,.134-1.141A2,2,0,0,1,411.636,197.249Zm.168,6.695a2.179,2.179,0,0,1-2.282-1.644,5.356,5.356,0,0,1-.1-1.225.079.079,0,0,1,.083-.084h5.369a.2.2,0,0,0,.218-.218,8.858,8.858,0,0,0-.1-1.677,3.131,3.131,0,0,0-3.356-2.886,3.167,3.167,0,0,0-3.238,2.4,7.878,7.878,0,0,0-.151,1.947,6.6,6.6,0,0,0,.319,2.316,3.1,3.1,0,0,0,3.138,2.1,3.286,3.286,0,0,0,3.121-1.829c.068-.118.017-.218-.1-.286l-.486-.268a.192.192,0,0,0-.285.1A2.31,2.31,0,0,1,411.8,203.943Zm-4.841-6.829v-.553a.2.2,0,0,0-.218-.218h-1.829a.08.08,0,0,1-.084-.084V194.38a.2.2,0,0,0-.218-.218h-.721a.2.2,0,0,0-.218.218v1.879a.08.08,0,0,1-.084.084h-.956a.2.2,0,0,0-.218.218v.553a.2.2,0,0,0,.218.218h.956a.08.08,0,0,1,.084.084v5.268c0,1.745.989,2.131,2.45,2.131h.571a.215.215,0,0,0,.218-.235v-.587a.2.2,0,0,0-.218-.219h-.369c-1.007,0-1.494-.369-1.494-1.459v-4.9a.08.08,0,0,1,.084-.084h1.829A.2.2,0,0,0,406.963,197.114Zm-8.817-.889a2.638,2.638,0,0,0-2.248,1.007c-.034.066-.084.017-.084-.051v-.62a.2.2,0,0,0-.218-.218h-.755a.2.2,0,0,0-.218.218v8.053a.2.2,0,0,0,.218.218h.755a.2.2,0,0,0,.218-.218v-5.587a2.04,2.04,0,0,1,4.061.335v5.252a.2.2,0,0,0,.218.218h.755a.2.2,0,0,0,.218-.218v-5.486A2.734,2.734,0,0,0,398.146,196.225Zm-8.834,1.023a2.1,2.1,0,0,1,2.165,1.644,7.012,7.012,0,0,1,.1,1.074.079.079,0,0,1-.084.083h-4.312a.079.079,0,0,1-.083-.083,4.715,4.715,0,0,1,.134-1.141A2,2,0,0,1,389.312,197.249Zm.168,6.695A2.179,2.179,0,0,1,387.2,202.3a5.356,5.356,0,0,1-.1-1.225.079.079,0,0,1,.083-.084h5.369a.2.2,0,0,0,.218-.218,8.857,8.857,0,0,0-.1-1.677,3.131,3.131,0,0,0-3.356-2.886,3.167,3.167,0,0,0-3.238,2.4,7.879,7.879,0,0,0-.151,1.947,6.6,6.6,0,0,0,.319,2.316,3.1,3.1,0,0,0,3.137,2.1,3.286,3.286,0,0,0,3.121-1.829c.068-.118.017-.218-.1-.286l-.486-.268a.192.192,0,0,0-.285.1A2.31,2.31,0,0,1,389.48,203.943Zm-6.552.889h.756a.2.2,0,0,0,.218-.218v-8.053a.2.2,0,0,0-.218-.218h-.756a.2.2,0,0,0-.218.218v8.053A.2.2,0,0,0,382.928,204.832Zm.369-10.016a.865.865,0,1,0-.906-.873A.846.846,0,0,0,383.3,194.816Zm-5.73,10.151a3.21,3.21,0,0,0,3.289-2.181c.033-.117.05-.218.067-.285a.209.209,0,0,0-.2-.252l-.721-.117a.2.2,0,0,0-.252.184l-.017.017a.177.177,0,0,1-.017.083,2.24,2.24,0,0,1-4.278-.134,7.463,7.463,0,0,1-.151-1.712,7.837,7.837,0,0,1,.151-1.694,2.059,2.059,0,0,1,2.131-1.628,2.116,2.116,0,0,1,2.165,1.526.861.861,0,0,1,.033.2.2.2,0,0,0,.252.185l.738-.084a.209.209,0,0,0,.2-.251,3.313,3.313,0,0,0-.1-.453,3.272,3.272,0,0,0-3.289-2.165,3.23,3.23,0,0,0-3.255,2.3,7.881,7.881,0,0,0-.219,2.047,7.388,7.388,0,0,0,.219,2.08A3.22,3.22,0,0,0,377.568,204.967Zm-6.451-.135h.755a.2.2,0,0,0,.218-.218v-8.053a.2.2,0,0,0-.218-.218h-.755a.2.2,0,0,0-.218.218v8.053A.2.2,0,0,0,371.116,204.832Zm.369-11.745a.865.865,0,1,0,.906.856A.843.843,0,0,0,371.485,193.087Zm-6.107,2.786v.386a.08.08,0,0,1-.084.084h-1.057a.2.2,0,0,0-.218.218v.654a.2.2,0,0,0,.218.218h1.057a.08.08,0,0,1,.084.084v7.1a.2.2,0,0,0,.218.218h.738a.2.2,0,0,0,.218-.218v-7.1a.079.079,0,0,1,.083-.084h1.812a.2.2,0,0,0,.218-.218v-.654a.2.2,0,0,0-.218-.218h-1.812a.079.079,0,0,1-.083-.084v-.319c0-1.275.319-1.812,1.594-1.812h.335a.2.2,0,0,0,.218-.218v-.6a.2.2,0,0,0-.218-.218h-.436C365.965,193.087,365.378,193.876,365.378,195.873Zm-5.9,1.376a2.1,2.1,0,0,1,2.165,1.644,7.016,7.016,0,0,1,.1,1.074.079.079,0,0,1-.084.083h-4.312a.079.079,0,0,1-.084-.083,4.709,4.709,0,0,1,.135-1.141A2,2,0,0,1,359.48,197.249Zm.168,6.695a2.179,2.179,0,0,1-2.282-1.644,5.344,5.344,0,0,1-.1-1.225.08.08,0,0,1,.084-.084h5.369a.2.2,0,0,0,.218-.218,8.857,8.857,0,0,0-.1-1.677,3.131,3.131,0,0,0-3.356-2.886,3.167,3.167,0,0,0-3.238,2.4,7.879,7.879,0,0,0-.151,1.947,6.6,6.6,0,0,0,.319,2.316,3.1,3.1,0,0,0,3.138,2.1,3.286,3.286,0,0,0,3.12-1.829c.067-.118.017-.218-.1-.286l-.486-.268a.192.192,0,0,0-.285.1A2.31,2.31,0,0,1,359.648,203.943Zm46.426-15.584c1.9,0,3.121-.956,3.121-2.4,0-1.662-1.628-2.114-3.054-2.517-1.141-.335-2.047-.638-2.047-1.477,0-.805.771-1.292,1.9-1.292,1.259,0,2.013.6,2.013,1.342v.1c0,.067.084.117.218.117h.688a.2.2,0,0,0,.218-.218c0-1.326-1.241-2.315-3.12-2.315-1.812,0-3.071.906-3.071,2.349,0,1.594,1.544,2.08,2.986,2.5,1.107.335,2.08.587,2.08,1.493,0,.789-.771,1.392-1.946,1.392-1.208,0-2.013-.671-2.013-1.375v-.151c0-.084-.084-.151-.218-.151H403.1a.2.2,0,0,0-.218.218v.151C402.886,187.353,404.145,188.359,406.074,188.359Zm-8.1-7.668a2.1,2.1,0,0,1,2.165,1.644,7.128,7.128,0,0,1,.1,1.074.08.08,0,0,1-.084.083h-4.312a.079.079,0,0,1-.084-.083,4.709,4.709,0,0,1,.135-1.141A2,2,0,0,1,397.978,180.691Zm.168,6.695a2.178,2.178,0,0,1-2.282-1.644,5.338,5.338,0,0,1-.1-1.225.079.079,0,0,1,.084-.083h5.369a.2.2,0,0,0,.218-.218,8.874,8.874,0,0,0-.1-1.678,3.132,3.132,0,0,0-3.356-2.886,3.167,3.167,0,0,0-3.238,2.4,7.838,7.838,0,0,0-.151,1.946,6.6,6.6,0,0,0,.319,2.316,3.1,3.1,0,0,0,3.138,2.1,3.286,3.286,0,0,0,3.121-1.829.2.2,0,0,0-.1-.285l-.486-.268a.192.192,0,0,0-.285.1A2.31,2.31,0,0,1,398.146,187.386Zm-6.988-1.308a1.824,1.824,0,0,1-1.8,1.292,1.93,1.93,0,0,1-1.929-1.308,4.622,4.622,0,0,1-.3-2.031,3.979,3.979,0,0,1,.386-2.114,1.928,1.928,0,0,1,1.862-1.225,1.8,1.8,0,0,1,1.762,1.259,4.8,4.8,0,0,1,.3,2.08A4.678,4.678,0,0,1,391.158,186.078Zm.319-9.329v3.876c0,.067-.05.1-.1.034a2.611,2.611,0,0,0-2.131-1.007,3.035,3.035,0,0,0-3.1,2.3,7.574,7.574,0,0,0-.2,2.08,7.2,7.2,0,0,0,.235,2.131,3.018,3.018,0,0,0,3.071,2.249,2.578,2.578,0,0,0,2.131-1.024c.05-.05.1-.033.1.034v.638a.2.2,0,0,0,.218.218h.755a.2.2,0,0,0,.218-.218V176.749a.2.2,0,0,0-.218-.218h-.755A.2.2,0,0,0,391.477,176.749Zm-10.814,10.637c-1.024,0-1.846-.47-1.846-1.493,0-1.09.989-1.711,2.45-1.711h1.762a.08.08,0,0,1,.084.084v1.292C383.113,186.732,381.9,187.386,380.663,187.386Zm.47-7.734c-1.729,0-2.97.838-3.188,2.064-.017.117.067.168.2.184l.822.1a.2.2,0,0,0,.251-.168c.185-.7.873-1.141,1.93-1.141a1.708,1.708,0,0,1,1.963,1.846v.621a.079.079,0,0,1-.084.083h-1.946c-2.181,0-3.457,1.041-3.457,2.719,0,1.762,1.343,2.45,2.769,2.45a3.545,3.545,0,0,0,2.617-.99c.05-.067.1-.034.1.034v.6a.2.2,0,0,0,.218.218h.755a.2.2,0,0,0,.218-.218V182.47C384.3,180.809,383.18,179.651,381.133,179.651Zm-6.62,6.426a1.824,1.824,0,0,1-1.795,1.292,1.931,1.931,0,0,1-1.93-1.308,4.623,4.623,0,0,1-.3-2.031,3.98,3.98,0,0,1,.386-2.114,1.929,1.929,0,0,1,1.862-1.225,1.8,1.8,0,0,1,1.762,1.259,4.784,4.784,0,0,1,.3,2.08A4.675,4.675,0,0,1,374.514,186.078Zm.319-9.329v3.876c0,.067-.05.1-.1.034a2.611,2.611,0,0,0-2.131-1.007,3.036,3.036,0,0,0-3.1,2.3,7.6,7.6,0,0,0-.2,2.08,7.2,7.2,0,0,0,.235,2.131,3.017,3.017,0,0,0,3.071,2.249,2.578,2.578,0,0,0,2.131-1.024c.05-.05.1-.033.1.034v.638a.2.2,0,0,0,.219.218h.755a.2.2,0,0,0,.218-.218V176.749a.2.2,0,0,0-.218-.218h-.755A.2.2,0,0,0,374.832,176.749Zm-8.465,11.527h.756a.2.2,0,0,0,.218-.218V180a.2.2,0,0,0-.218-.218h-.756a.2.2,0,0,0-.218.218v8.054A.2.2,0,0,0,366.368,188.275Zm.369-10.017a.865.865,0,1,0-.906-.872A.845.845,0,0,0,366.737,178.258Zm-6.585,10.168c2.365,0,3.943-1.46,3.943-3.658v-.083c0-.05-.084-.084-.218-.084l-.755-.034a.174.174,0,0,0-.219.185,2.755,2.755,0,0,1-5.5,0v-4.7a2.755,2.755,0,0,1,5.5,0v.1c0,.067.084.117.219.1l.755-.05c.134-.017.218-.083.218-.184,0-2.181-1.577-3.625-3.943-3.625a3.612,3.612,0,0,0-3.943,3.692V184.7A3.628,3.628,0,0,0,360.152,188.426Z" transform="translate(1.654 -21.807)" fill="#1f31f3"/>
  </g>
</svg>
